<svg width="109" height="52" viewBox="0 0 109 52" fill="none" xmlns="http://www.w3.org/2000/svg">
<path d="M26.7807 5.65588C27.0488 5.66267 27.3169 5.66883 27.585 5.67435C28.2389 5.68916 28.892 5.71243 29.5454 5.7403C28.8968 6.52921 28.2177 7.26307 27.4902 7.97731C22.3954 13.0757 19.154 19.8453 17.527 26.8442C17.4736 27.0661 17.4736 27.0661 17.4192 27.2924C16.2676 32.2979 16.3859 38.2276 17.527 43.2208C17.6372 43.7222 17.7473 44.2237 17.8608 44.7403C15.9329 44.7403 14.005 44.7403 12.0186 44.7403C11.0853 42.6164 10.4704 40.6009 9.98422 38.3353C9.94251 38.1425 9.90079 37.9497 9.85781 37.7511C9.30392 35.0844 9.1263 32.5316 9.13739 29.8142C9.13918 29.293 9.13739 28.772 9.13527 28.2509C9.134 26.3455 9.22214 24.5068 9.51475 22.6234C9.5407 22.4388 9.56664 22.2542 9.59337 22.064C9.78005 20.7501 10.1393 19.5031 10.5163 18.2338C10.587 17.9851 10.6574 17.7362 10.7275 17.4873C10.7997 17.2331 10.8718 16.979 10.944 16.7249C10.977 16.6071 11.01 16.4893 11.044 16.368C11.262 15.6095 11.5376 14.905 11.8517 14.1819C11.9249 13.958 11.995 13.7329 12.0603 13.5065C12.6906 11.5543 13.7136 9.72757 14.6893 7.93511C15.8461 7.93511 17.0029 7.93511 18.1947 7.93511C17.7473 8.86835 17.2781 9.76135 16.7446 10.647C15.1824 13.3338 14.2151 16.3907 13.4469 19.3944C13.3695 19.6932 13.2856 19.9903 13.2001 20.2868C12.3816 23.2224 12.3063 26.2329 12.3107 29.2606C12.3108 29.4122 12.311 29.5639 12.3111 29.7202C12.3149 31.2466 12.3267 32.7564 12.5193 34.2728C12.5306 34.0805 12.5306 34.0805 12.542 33.8844C12.8331 29.0391 12.8331 29.0391 13.354 26.6754C13.3875 26.5186 13.4211 26.3619 13.4557 26.2004C14.9878 19.1212 18.0098 12.601 22.7016 7.09095C22.768 6.97574 22.8343 6.86053 22.9027 6.74183C23.8344 5.32254 25.2784 5.58988 26.7807 5.65588Z" fill="#1E1E7B"/>
<path d="M90.9726 5.74023C92.9006 5.74023 94.8285 5.74023 96.8149 5.74023C97.5674 7.64293 97.5674 7.64293 97.7858 8.39669C97.8578 8.64448 97.8578 8.64448 97.9313 8.89729C97.9795 9.06724 98.0276 9.2372 98.0772 9.41231C98.1282 9.59174 98.1791 9.77116 98.2316 9.95603C98.5929 11.2441 98.9297 12.523 99.1518 13.8441C99.1741 13.9668 99.1965 14.0896 99.2195 14.216C99.9631 18.4061 100.037 23.1454 99.3187 27.3506C99.2918 27.5111 99.2649 27.6716 99.2371 27.8369C98.8475 30.0956 98.3254 32.2702 97.5939 34.4396C97.4337 34.9282 97.2982 35.4236 97.1592 35.9188C96.5613 37.8817 95.427 41.079 93.9772 42.5454C93.7165 42.5601 93.4552 42.5635 93.1941 42.5619C93.0365 42.5614 92.8789 42.5608 92.7165 42.5603C92.5507 42.5588 92.3849 42.5574 92.2141 42.556C92.0477 42.5552 91.8812 42.5545 91.7097 42.5537C91.2971 42.5517 90.8845 42.5489 90.4719 42.5454C90.5508 42.412 90.6298 42.2786 90.7112 42.1412C92.2691 39.4535 93.5751 36.6381 94.5129 33.6669C94.6029 33.3892 94.6974 33.1131 94.7957 32.8383C95.2512 31.5403 95.5403 30.2354 95.7817 28.884C95.8446 28.5325 95.9102 28.1816 95.976 27.8307C96.3658 25.7202 96.5095 23.6659 96.5028 21.5182C96.5019 21.1775 96.5028 20.8369 96.5039 20.4961C96.5026 19.2258 96.4577 17.9766 96.3141 16.7143C96.3033 16.8405 96.2925 16.9667 96.2814 17.0967C95.9342 21.0469 95.3945 24.9279 94.1441 28.7013C94.1051 28.8215 94.0661 28.9416 94.0259 29.0655C92.1773 34.6833 89.1343 40.3528 84.9634 44.5714C84.5426 44.5863 84.1264 44.5909 83.7056 44.5879C83.517 44.5875 83.517 44.5875 83.3246 44.5872C82.9215 44.5862 82.5184 44.5841 82.1153 44.582C81.8427 44.5811 81.57 44.5803 81.2973 44.5796C80.6276 44.5778 79.9578 44.5749 79.2881 44.5714C79.9532 43.7593 80.6564 43.0136 81.4059 42.2816C82.5384 41.1552 83.5218 39.9545 84.4627 38.6623C84.5683 38.5189 84.674 38.3755 84.7828 38.2277C86.2338 36.1959 87.4078 34.0001 88.4688 31.7402C88.5182 31.6375 88.5677 31.5348 88.6186 31.429C90.608 27.2734 91.9108 22.3524 91.9741 17.7272C91.9789 17.4804 91.9789 17.4804 91.9838 17.2285C92.0456 13.6948 91.8939 10.3215 91.1069 6.87325C90.9726 6.24673 90.9726 6.24673 90.9726 5.74023Z" fill="#1E1E7B"/>
<path d="M72.726 13.4644C73.024 13.4624 73.024 13.4624 73.3281 13.4604C75.0822 13.4643 76.8249 13.5831 78.4639 14.2558C78.638 14.3252 78.8121 14.3947 78.9914 14.4662C79.4441 14.6832 79.7659 14.8403 80.1227 15.1949C80.1985 15.6864 80.1985 15.6864 80.1879 16.2785C80.1858 16.4901 80.1836 16.7018 80.1814 16.9198C80.1758 17.1411 80.1702 17.3623 80.1644 17.5902C80.1611 17.8157 80.158 18.0411 80.1553 18.2665C80.1474 18.8185 80.1364 19.3703 80.1227 19.9222C79.5958 20.093 79.4923 20.1073 78.9549 19.8727C78.7653 19.7672 78.5758 19.6616 78.3805 19.5529C76.581 18.6088 75.0148 18.1753 72.9764 18.1495C72.8129 18.1463 72.6495 18.1432 72.4812 18.14C71.2115 18.1512 70.2967 18.4198 69.3562 19.2996C69.0262 19.8978 69.0104 20.2594 69.1059 20.9352C69.4947 21.6562 69.9419 21.8933 70.6928 22.1653C71.5277 22.4071 72.3887 22.5059 73.2476 22.6235C75.8583 22.9848 78.7282 23.4345 80.4565 25.6625C81.6186 27.2605 81.6166 29.2548 81.4118 31.1574C81.0666 33.033 80.0775 34.4931 78.5422 35.5767C76.5658 36.7731 74.4035 36.8832 72.1522 36.8475C71.9277 36.8464 71.7031 36.8456 71.4786 36.8449C69.8147 36.8316 68.2485 36.7986 66.6646 36.2566C66.4628 36.1896 66.261 36.1226 66.053 36.0535C65.846 35.9678 65.6395 35.8807 65.4336 35.7923C65.3111 35.7496 65.1886 35.7069 65.0624 35.6629C64.6321 35.4697 64.394 35.3218 64.0982 34.9482C63.9312 34.1132 63.9724 33.2931 64.0147 32.4474C64.0214 32.2153 64.0275 31.9833 64.033 31.7513C64.0487 31.1844 64.0707 30.6185 64.0982 30.0521C64.599 29.8832 64.599 29.8832 65.1617 30.1385C65.3885 30.2598 65.6148 30.3823 65.8404 30.5058C68.3578 31.8284 71.3012 32.7901 74.1572 32.1189C75.0713 31.8054 75.8305 31.4749 76.2835 30.5586C76.3444 29.9059 76.3464 29.4985 76.0435 28.9125C74.9602 27.9503 73.3811 27.8937 72.0061 27.7095C69.4533 27.3382 66.8831 26.8726 65.0997 24.8183C63.8914 23.1771 63.7544 21.238 63.9313 19.2469C64.3719 17.3296 65.4937 15.7717 67.1237 14.6917C68.9476 13.6886 70.6788 13.4512 72.726 13.4644Z" fill="#1E1E7B"/>
<path d="M33.7182 13.8441C34.4045 13.84 35.0908 13.8369 35.7772 13.8348C36.0108 13.834 36.2445 13.8328 36.4781 13.8314C36.8133 13.8293 37.1485 13.8285 37.4837 13.8276C37.7866 13.8263 37.7866 13.8263 38.0956 13.825C38.5589 13.8441 38.5589 13.8441 38.7258 14.0129C38.7435 14.4861 38.7503 14.9552 38.7501 15.4285C38.7506 15.577 38.7512 15.7256 38.7518 15.8786C38.7534 16.373 38.7537 16.8674 38.7539 17.3619C38.7544 17.7054 38.755 18.049 38.7555 18.3925C38.7565 19.115 38.7568 19.8374 38.7567 20.5599C38.7567 21.4819 38.759 22.404 38.7619 23.3261C38.7638 24.037 38.7641 24.7479 38.764 25.4588C38.7642 25.7984 38.7649 26.138 38.7662 26.4777C38.7767 29.5123 38.6609 32.3168 36.6028 34.7363C34.9513 36.3867 32.8382 37.0302 30.5571 37.0479C28.1823 37.0093 26.2788 36.4325 24.2036 35.2857C24.2036 33.6142 24.2036 31.9428 24.2036 30.2207C24.991 30.38 25.2817 30.5158 25.9146 30.9594C27.6523 32.0931 29.3298 32.3395 31.3813 32.0779C32.253 31.8123 32.6947 31.3563 33.1235 30.5584C33.56 29.5764 33.5782 28.6061 33.5855 27.5483C33.5872 27.3999 33.5888 27.2516 33.5905 27.0988C33.5958 26.6101 33.5999 26.1213 33.6041 25.6326C33.6075 25.2932 33.611 24.9537 33.6146 24.6142C33.6238 23.7219 33.632 22.8296 33.6401 21.9372C33.6485 21.0262 33.6578 20.1152 33.667 19.2042C33.6849 17.4175 33.7019 15.6308 33.7182 13.8441Z" fill="#1C1C7A"/>
<path d="M14.6893 7.93506C15.8461 7.93506 17.0029 7.93506 18.1947 7.93506C17.7473 8.8683 17.2781 9.76131 16.7446 10.6469C15.1824 13.3338 14.2151 16.3907 13.4469 19.3944C13.3695 19.6932 13.2856 19.9903 13.2001 20.2868C11.7113 25.6261 12.2172 31.5311 12.655 36.9846C12.6688 37.159 12.6825 37.3334 12.6967 37.5131C12.8466 39.3671 13.0389 41.1845 13.4242 43.0047C13.5209 43.5584 13.5209 43.5584 13.5209 44.5714C14.9531 44.5157 16.3853 44.46 17.8608 44.4026C17.8608 44.514 17.8608 44.6255 17.8608 44.7403C15.9329 44.7403 14.005 44.7403 12.0186 44.7403C11.0853 42.6164 10.4704 40.6008 9.98422 38.3352C9.94251 38.1424 9.90079 37.9497 9.85781 37.751C9.30392 35.0844 9.1263 32.5316 9.13739 29.8141C9.13918 29.293 9.13739 28.772 9.13527 28.2509C9.134 26.3454 9.22214 24.5068 9.51475 22.6234C9.5407 22.4388 9.56664 22.2542 9.59337 22.064C9.78005 20.75 10.1393 19.503 10.5163 18.2338C10.587 17.985 10.6574 17.7361 10.7275 17.4872C10.7997 17.2331 10.8718 16.979 10.944 16.7248C10.977 16.6071 11.01 16.4893 11.044 16.3679C11.262 15.6094 11.5376 14.9049 11.8517 14.1818C11.9249 13.9579 11.995 13.7329 12.0603 13.5065C12.6906 11.5543 13.7136 9.72752 14.6893 7.93506Z" fill="#0493E1"/>
<path d="M95.1455 5.74023C95.6963 5.74023 96.2472 5.74023 96.8147 5.74023C97.3122 6.94792 97.7209 8.15502 98.0771 9.41231C98.128 9.59174 98.1789 9.77116 98.2314 9.95603C98.5928 11.2441 98.9295 12.523 99.1516 13.8441C99.174 13.9668 99.1963 14.0896 99.2193 14.216C99.9629 18.4061 100.037 23.1454 99.3185 27.3506C99.2916 27.5111 99.2647 27.6716 99.237 27.8369C98.8473 30.0956 98.3253 32.2702 97.5937 34.4396C97.4335 34.9282 97.298 35.4236 97.159 35.9188C96.5611 37.8817 95.4269 41.079 93.977 42.5454C93.7164 42.5601 93.455 42.5635 93.1939 42.5619C93.0363 42.5614 92.8787 42.5608 92.7163 42.5603C92.5505 42.5589 92.3847 42.5574 92.2139 42.556C92.0475 42.5552 91.8811 42.5545 91.7096 42.5537C91.2969 42.5517 90.8843 42.5489 90.4717 42.5454C90.5506 42.412 90.6296 42.2786 90.711 42.1412C92.2689 39.4535 93.5749 36.6381 94.5127 33.6669C94.6027 33.3892 94.6972 33.1131 94.7955 32.8383C95.251 31.5403 95.5401 30.2354 95.7815 28.884C95.8445 28.5325 95.91 28.1816 95.9759 27.8307C96.3825 25.6289 96.5134 23.4806 96.5122 21.241C96.5122 21.1255 96.5123 21.0099 96.5124 20.8908C96.5113 19.3777 96.4462 17.908 96.2305 16.4109C96.1115 15.5203 96.1003 14.6254 96.074 13.7281C96.0114 11.7722 95.7777 9.86674 95.4793 7.93504C95.4435 7.69523 95.4079 7.45539 95.3724 7.21553C95.2988 6.72341 95.2234 6.23167 95.1455 5.74023Z" fill="#0393E1"/>
<path fill-rule="evenodd" clip-rule="evenodd" d="M52.3078 13.7681C54.8532 13.7379 57.2953 14.0361 59.2483 15.8335C60.4031 17.0335 60.791 18.3659 60.842 20.0181C60.7717 22.2785 59.7761 23.4562 58.2551 24.9878C58.362 25.0433 58.4692 25.0986 58.5793 25.1558C59.8392 25.8566 60.7836 26.6616 61.2854 28.0572C61.6898 29.9094 61.7296 32.0276 60.7414 33.6851C59.481 35.3569 57.9238 36.0644 55.9182 36.4683C55.4688 36.4973 55.0375 36.513 54.5891 36.5093C54.4638 36.5096 54.3383 36.5099 54.2092 36.5103C53.8001 36.5109 53.3908 36.5092 52.9817 36.5073C52.6959 36.5071 52.41 36.5073 52.1242 36.5073C51.5279 36.5071 50.9315 36.5057 50.3352 36.5034C49.5693 36.5006 48.8032 36.4994 48.0373 36.4995C47.4484 36.4995 46.8587 36.4988 46.2698 36.4976C45.9872 36.497 45.7046 36.4967 45.4221 36.4966C45.0289 36.4962 44.6356 36.4945 44.2424 36.4927C44.0665 36.4928 44.0663 36.4926 43.8869 36.4927C43.0844 36.4873 43.0837 36.4875 42.8977 36.2993C42.8813 36.0114 42.8773 35.7225 42.8772 35.4341C42.8767 35.2467 42.8757 35.0589 42.8752 34.8657C42.8756 34.6583 42.8758 34.4505 42.8762 34.2368C42.8759 34.02 42.8755 33.8031 42.8752 33.5796V29.9165C42.8749 28.8693 42.8754 27.8221 42.8762 26.7749C42.8771 25.5622 42.8771 24.3489 42.8762 23.1363C42.8754 22.097 42.8748 21.0574 42.8752 20.0181C42.8755 19.3967 42.8758 18.7752 42.8752 18.1538C42.8747 17.4613 42.8753 16.7683 42.8762 16.0757C42.8759 15.8683 42.8756 15.6605 42.8752 15.4468C42.8757 15.2596 42.8767 15.0723 42.8772 14.8794C42.8772 14.7155 42.8771 14.5512 42.8772 14.3823C42.9209 13.6158 43.4724 13.8203 44.1145 13.815C44.224 13.8139 44.3336 13.8132 44.4465 13.812C44.8121 13.8087 45.1776 13.8059 45.5432 13.8042C45.6685 13.8035 45.794 13.803 45.9231 13.8023C46.5896 13.7987 47.2565 13.797 47.9231 13.7954C48.6048 13.7936 49.2863 13.7875 49.968 13.7808C50.4972 13.7763 51.0267 13.7745 51.5559 13.7739C51.8065 13.7731 52.0572 13.7713 52.3078 13.7681ZM51.8811 27.1148C51.4761 27.1222 51.0713 27.1295 50.6662 27.1323C50.3985 27.1337 50.1303 27.1359 49.8625 27.1382C49.7328 27.1396 49.6066 27.1407 49.4807 27.1421C48.7765 27.1492 48.0923 26.907 48.0539 27.7886C48.0548 27.9843 48.056 28.1748 48.0569 28.3648C48.0574 28.5761 48.0573 28.7817 48.0578 28.9868C48.0593 29.2093 48.0613 29.4252 48.0627 29.6411C48.0653 30.3973 48.0677 31.1535 48.0725 31.9097C48.8473 31.9201 49.6228 31.9295 50.3977 31.9351C50.7146 31.9372 51.0319 31.9394 51.3489 31.9419C51.8147 31.9484 52.2804 31.9547 52.7463 31.9575C52.8975 31.9583 53.0448 31.9588 53.1916 31.9595C54.179 31.9778 54.8905 31.9624 55.7512 31.4038C56.1571 30.9501 56.3924 30.6134 56.4651 29.9986C56.4756 29.2637 56.4669 28.8051 56.0012 28.2163C54.7424 27.1343 53.4632 27.0987 51.8811 27.1148ZM52.6692 18.3374C52.259 18.3404 51.8488 18.3438 51.4387 18.3521C51.1542 18.3579 50.8697 18.3633 50.5852 18.3667C49.7475 18.3748 48.9101 18.3883 48.0725 18.4038V22.9614C48.6983 22.9777 49.3236 22.995 49.9494 23.0034C50.2071 23.0069 50.4652 23.0099 50.7229 23.0142C51.8645 23.0471 53.0144 23.1324 54.1203 22.8003C54.7511 22.507 55.1447 22.3365 55.4563 21.6909C55.692 20.9216 55.7501 20.0988 55.3967 19.3638C54.6369 18.6721 54.0694 18.3263 53.052 18.3267C52.9219 18.3303 52.7954 18.3339 52.6692 18.3374Z" fill="#1E1E7B"/>
<path d="M101.322 22.2856C102.275 22.4062 102.275 22.4062 102.49 22.6233C102.396 27.1715 100.736 31.7344 98.8178 35.7921C98.7663 35.9042 98.7147 36.0162 98.6616 36.1317C97.7619 38.0868 96.6717 39.9144 95.4793 41.7012C95.3102 41.9562 95.3102 41.9562 95.1377 42.2163C94.8117 42.5454 94.8117 42.5454 94.3526 42.5981C94.2287 42.5807 94.1047 42.5633 93.9771 42.5454C94.1013 42.2999 94.1013 42.2999 94.2281 42.0494C94.8705 40.7703 95.4751 39.486 96.0282 38.165C96.3248 37.4692 96.6553 36.8077 97.0213 36.1468C99.2775 32.0586 100.401 27.3672 101.09 22.7712C101.155 22.4545 101.155 22.4545 101.322 22.2856Z" fill="#99D31C"/>
<path d="M14.3255 7.86377C14.4456 7.88727 14.5657 7.91078 14.6894 7.935C13.9818 9.45916 13.2734 10.9816 12.5194 12.4829C10.4149 16.6994 8.92336 20.8773 8.03726 25.5178C7.8767 26.3576 7.69954 27.192 7.51172 28.0259C7.28209 27.8082 7.05975 27.5824 6.84403 27.3506C6.84403 27.2392 6.84403 27.1277 6.84403 27.0129C6.73386 27.0129 6.62369 27.0129 6.51018 27.0129C6.42756 27.1801 6.42756 27.1801 6.34326 27.3506C6.42345 25.927 6.63218 24.5793 6.95879 23.1931C7.02616 22.9051 7.02616 22.9051 7.0949 22.6112C8.25287 17.775 10.2901 13.2262 12.9993 9.07461C13.0727 8.95873 13.1462 8.84285 13.2219 8.72346C13.7447 7.95164 13.7447 7.95164 14.3255 7.86377Z" fill="#99D31C"/>
<path d="M101.322 22.2856C102.275 22.4062 102.275 22.4062 102.49 22.6233C102.475 22.965 102.449 23.3063 102.417 23.6468C102.4 23.8334 102.383 24.0199 102.366 24.212C102.352 24.3563 102.338 24.5006 102.323 24.6493C102.268 24.4264 102.213 24.2036 102.156 23.974C101.771 23.9182 101.385 23.8625 100.988 23.8051C101.134 22.4756 101.134 22.4756 101.322 22.2856Z" fill="#BDE275"/>
<path d="M6.51018 25.3247C6.62035 25.4918 6.73052 25.659 6.84403 25.8312C7.35386 26.036 7.35386 26.036 7.84556 26.1689C7.82651 26.4152 7.80522 26.6614 7.78296 26.9075C7.77134 27.0446 7.75972 27.1817 7.74775 27.323C7.67864 27.6883 7.67864 27.6883 7.34479 28.026C6.84403 27.3929 6.84403 27.3929 6.84403 27.013C6.73386 27.013 6.62369 27.013 6.51018 27.013C6.4551 27.1244 6.40002 27.2359 6.34326 27.3507C6.39835 26.6821 6.45343 26.0135 6.51018 25.3247Z" fill="#B0DC58"/>
<path d="M100.988 23.8052C101.373 23.8609 101.759 23.9166 102.156 23.974C102.156 24.5311 102.156 25.0883 102.156 25.6623C102.06 25.523 101.963 25.3837 101.864 25.2402C101.74 25.101 101.616 24.9617 101.488 24.8182C101.268 24.8182 101.048 24.8182 100.821 24.8182C100.876 24.4839 100.931 24.1496 100.988 23.8052Z" fill="#AADA4A"/>
<path d="M6.34326 26.3376C6.90511 26.5812 7.26308 26.9003 7.67864 27.3506C7.56847 27.5735 7.4583 27.7963 7.34479 28.026C6.84403 27.3928 6.84403 27.3928 6.84403 27.013C6.73386 27.013 6.62369 27.013 6.51018 27.013C6.4551 27.1244 6.40002 27.2358 6.34326 27.3506C6.34326 27.0163 6.34326 26.6821 6.34326 26.3376Z" fill="#BBE170"/>
<path d="M100.988 24.6494C101.301 24.6916 101.301 24.6916 101.655 24.8182C101.864 25.1665 101.864 25.1665 101.989 25.4936C101.604 25.4379 101.218 25.3821 100.821 25.3247C100.876 25.1019 100.931 24.879 100.988 24.6494Z" fill="#9DD428"/>
<path d="M6.67676 25.3247C7.06235 25.4361 7.44794 25.5476 7.84521 25.6624C7.84521 25.8295 7.84521 25.9967 7.84521 26.1689C7.34945 26.0853 7.34945 26.0853 6.84368 26C6.7886 25.7772 6.73351 25.5543 6.67676 25.3247Z" fill="#A2D636"/>
</svg>
